<?xml version="1.0" encoding="UTF-8" standalone="no"?>
<!-- Generator: Adobe Illustrator 26.1.0, SVG Export Plug-In . SVG Version: 6.00 Build 0)  -->

<svg
   version="1.1"
   id="Sinch_logo"
   x="0px"
   y="0px"
   viewBox="0 0 805.55 255.83999"
   xml:space="preserve"
   sodipodi:docname="sinch.svg"
   width="805.54999"
   height="255.84"
   inkscape:version="1.2.2 (b0a8486541, 2022-12-01)"
   xmlns:inkscape="http://www.inkscape.org/namespaces/inkscape"
   xmlns:sodipodi="http://sodipodi.sourceforge.net/DTD/sodipodi-0.dtd"
   xmlns="http://www.w3.org/2000/svg"
   xmlns:svg="http://www.w3.org/2000/svg"><defs
   id="defs29" /><sodipodi:namedview
   id="namedview27"
   pagecolor="#ffffff"
   bordercolor="#000000"
   borderopacity="0.25"
   inkscape:showpageshadow="2"
   inkscape:pageopacity="0.0"
   inkscape:pagecheckerboard="0"
   inkscape:deskcolor="#d1d1d1"
   showgrid="false"
   inkscape:zoom="0.925"
   inkscape:cx="96.756757"
   inkscape:cy="143.78378"
   inkscape:window-width="2560"
   inkscape:window-height="1415"
   inkscape:window-x="3840"
   inkscape:window-y="0"
   inkscape:window-maximized="1"
   inkscape:current-layer="g24" />
<g
   id="g24"
   transform="translate(-864.55,-224.42)">
	<path
   d="m 733.72,337.51 c -10.66,-15.15 -25.5,-26.5 -42.88,-32.81 -11.18,-4.18 -22.91,-6.24 -34.84,-6.12 -20.79,0.13 -42.82,6.65 -63.69,18.86 L 406.83,426.02 c -28.86,16.89 -50.33,14.62 -63.32,9.71 -9.53,-3.4 -17.65,-9.56 -23.49,-17.81 -5.85,-8.25 -8.98,-17.95 -9.03,-28.06 -0.06,-10.11 2.94,-19.85 8.7,-28.17 5.75,-8.32 13.8,-14.57 23.35,-18.11 12.87,-5.03 34.29,-7.56 63.34,8.97 l 20.9,11.95 c -1.22,4.2 -2.12,8.51 -2.69,12.83 l -1.08,8.17 158.23,-91.35 0.32,-0.2 c 4.23,-3 7.16,-7.44 8.26,-12.51 1.09,-5.07 0.25,-10.33 -2.38,-14.8 -2.62,-4.47 -6.8,-7.77 -11.77,-9.3 -4.96,-1.52 -10.27,-1.13 -14.95,1.11 l -0.15,0.07 -51.22,29.74 -52.17,-29.84 -0.3,-0.15 c -4.73,-2.21 -10.07,-2.55 -15.04,-0.96 -4.97,1.59 -9.12,4.97 -11.69,9.51 -2.57,4.54 -3.33,9.84 -2.12,14.92 1.2,5.07 4.25,9.48 8.58,12.39 l 31.83,18.03 -4.37,2.58 -0.09,0.06 c -6.19,3.93 -11.86,8.62 -16.88,13.95 l -20.89,-12.04 c -33.68,-19.18 -68.76,-23.29 -98.76,-11.57 -12.51,4.83 -24.01,12.51 -33.26,22.21 -9.25,9.7 -16.39,21.55 -20.63,34.31 -7.18,22.37 -5.47,46.31 4.83,67.42 10.3,21.11 28.12,37.2 50.15,45.3 11.19,4.18 22.94,6.24 34.86,6.12 20.77,-0.13 42.8,-6.66 63.69,-18.89 l 0.32,-0.2 185.07,-108.36 c 28.85,-16.88 50.33,-14.61 63.34,-9.71 9.53,3.38 17.65,9.52 23.5,17.77 5.84,8.26 8.93,17.96 8.95,28.08 0.02,5.33 -0.79,10.61 -2.39,15.62 -2.34,6.94 -6.26,13.39 -11.34,18.66 -5.07,5.27 -11.37,9.44 -18.24,12.06 -12.87,5.02 -34.31,7.53 -63.37,-8.99 l -20.89,-11.95 c 1.33,-4.58 2.28,-9.28 2.84,-14 l 0.97,-8.11 -123.25,72.16 v 47.7 l 82.14,-47.96 0.14,-0.08 c 6.17,-3.93 11.83,-8.62 16.84,-13.95 l 20.91,12.05 c 33.82,19.11 68.9,23.22 98.72,11.58 17.34,-6.52 32.04,-18.04 42.52,-33.32 10.47,-15.27 15.92,-33.14 15.75,-51.65 h 0.03 c -0.11,-18.55 -5.77,-36.35 -16.43,-51.5 z"
   id="path12" />
	<path
   d="m 959.35,370.56 c -23.84,-5.98 -41.73,-8.36 -41.73,-20.27 0,-9.55 8.93,-16.7 25.03,-16.7 15.5,0 26.25,6.08 33.39,18.48 l 37.56,-21.48 c -19.08,-23.89 -40.53,-32.25 -71.54,-32.25 -36.37,0 -69.16,22.03 -69.16,54.28 0,29.82 22.65,44.11 57.83,51.87 25.67,5.38 40.56,8.93 40.56,20.27 0,11.34 -10.67,19.08 -28.03,19.08 -18.49,0.02 -31.6,-7.73 -39.34,-23.24 l -39.37,22.65 c 16.7,27.44 42.94,36.96 77.52,37.01 41.75,0 75.14,-23.24 75.14,-57.23 -0.01,-32.8 -25.06,-44.13 -57.86,-52.47 z"
   id="path14" />
	<polygon
   points="1041.04,475.49 1085.17,475.44 1085.17,298.35 1041.04,324.17 "
   id="polygon16" />
	<path
   d="m 1587.22,298.35 c -14.71,0.25 -29.01,4.81 -41.13,13.12 v -87.05 l -44.21,25.65 v 225.37 h 44.85 v -90.02 c 0,-26.17 14.91,-43.54 39.37,-43.54 22.65,0 39.34,16.1 39.34,43.54 v 90.07 h 44.66 v -94.27 c 0,-49.48 -33.99,-82.87 -82.88,-82.87 z"
   id="path18" />
	<path
   d="m 1200.25,298.35 c -48.9,0 -84.07,36.39 -84.07,84.1 v 93.05 l 44.78,-0.05 v -90.02 c 0,-26.17 14.91,-43.54 39.37,-43.54 22.65,0 39.34,16.1 39.34,43.54 v 90.02 h 44.66 v -93 c 0,-45.33 -34.46,-84.1 -84.08,-84.1 z"
   id="path20" />
	<path
   d="m 1399.28,437.29 c -27.44,0 -45.92,-20.86 -45.92,-48.3 0,-28.03 19.68,-47.7 45.92,-47.7 8.22,-0.17 16.33,1.98 23.4,6.2 7.06,4.22 12.79,10.34 16.54,17.67 l 38.15,-22.67 c -14.31,-26.77 -44.11,-44.13 -77.49,-44.13 -53.63,0 -91.78,37.58 -91.78,90.64 0,53.06 38.84,91.22 91.78,91.17 15.82,0.2 31.39,-3.84 45.12,-11.69 13.73,-7.85 25.11,-19.23 32.97,-32.96 l -38.15,-22.08 c -7.14,14.9 -22.65,23.85 -40.54,23.85 z"
   id="path22" />
</g>
</svg>
