<svg version="1.2" xmlns="http://www.w3.org/2000/svg" viewBox="0 0 1547 405" width="1547" height="405"><defs><clipPath clipPathUnits="userSpaceOnUse" id="cp1"><path d="m-551-376h2558v3617h-2558z"/></clipPath></defs><style>.a{fill:#004d93;stroke:#004d93;stroke-linejoin:round;stroke-width:.9}</style><g clip-path="url(#cp1)"><path class="a" d="m35.8 365.1h0.4l0.5 0.5 0.5 0.5v0.4l-1.4 1.4v-0.4h-0.5l-0.5-0.5v-0.5z"/><path class="a" d="m38.1 367l1.4 1.4-0.9 1.9-1.9-1.4z"/><path class="a" d="m40.9 369.4l1.4 0.9-1.4 2.4-1.4-1.5z"/><path class="a" d="m43.7 371.2l2.4 1.5-1.9 2.3-1.9-1.4z"/><path class="a" d="m47.5 373.6v0.5h0.4l0.5 0.4 0.5 0.5h0.4l0.5 0.5-1.9 2.3-0.4-0.4-0.5-0.5h-0.5l-0.4-0.5h-0.5z"/><path class="a" d="m51.7 376.4l2.3 1.4-1.9 2.9-2.3-1.5z"/><path class="a" d="m56.4 378.8v0.4h0.4l1 0.5 0.4 0.5 1 0.5-1.9 3.4-0.9-0.5-0.5-0.6-0.9-0.4h-0.5l-0.5-0.5z"/><path class="a" d="m61.5 381.6h0.5l0.4 0.5 1 0.5 0.9 0.4 0.5 0.5h0.5l-1.9 3.9-0.5-0.5h-0.9l-0.5-0.5-0.9-0.5-1-0.4z"/><path class="a" d="m68.1 384.5l4.2 1.9-2.4 4.3-4.2-1.9z"/><path class="a" d="m75.6 387.4l4.6 1.4-2.3 5.2-4.7-1.9z"/><path class="a" d="m84 389.7l5.6 1.4-2.3 5.7-5.7-1.9z"/><path class="a" d="m93.8 392.1h0.5 0.9l1 0.4h1.4l0.9 0.5h0.9 1 0.4l-2.3 6.6h-0.5l-0.4-0.5h-1.4l-1-0.4h-1.4l-0.9-0.5h-0.9-0.5z"/><path class="a" d="m105.5 393.5h0.5l0.9 0.5h1.4 1.4l1.5 0.4h0.9 0.9 0.5l-1.9 7.1h-0.4-1-1.4l-1.4-0.5h-1.4-1.4l-0.9-0.5z"/><path class="a" d="m119.6 394.4h1.4l1.4 0.5h1.4 1.9 1.4 0.9 0.5l-1.9 8h-0.5-0.9-1.4-1.9-1.9l-1.4-0.5h-0.4-1z"/><path class="a" d="m145.8 393.5l-1.4 9.4h-0.9-1-1.4-2.3l-1.4 0.5h-1.4-1.4-1l1.4-9h0.5 0.9l1-0.4h1.4 1.4 2.3 1.4 1l0.4-0.5z"/><path class="a" d="m165.9 390.7l-0.4 9.8-0.5 0.5h-0.5-1.4l-1.8 0.5h-2.4l-2.3 0.5-1.9 0.4h-1.4-0.5-0.4l0.9-9.9h0.5 0.4l1.4-0.4h1.9l1.9-0.5 2.3-0.5h2.4l0.9-0.4h0.5z"/><path class="a" d="m188.9 384.5l0.9 11.3h-0.4l-1 0.5h-0.9l-1.9 0.5-1.4 0.5-1.9 0.4-2.8 1-2.3 0.4h-1.4l-1 0.5v-11.3l1-0.5h1.4l1.9-0.4 2.8-1 1.8-0.5h1.4l1.4-0.4 1.5-0.5h0.4z"/><path class="a" d="m215.1 375l2.4 12.4-0.5 0.4h-1l-0.9 0.5-1.9 0.5-1.8 0.9-2.4 1-1.8 0.4-2.4 1-1.4 0.4-1.4 0.5h-0.9l-0.5 0.5-1.4-12.4v-0.4h0.9l1.4-0.5 1.9-0.5 1.9-0.9 1.9-0.5 1.8-0.9 1.9-0.5 1.4-0.9 1.4-0.5h0.9z"/><path class="a" d="m244.1 360.9l4.7 12.7-0.4 0.5-1 0.4-1.4 0.5-1.9 1-2.3 1.4-2.3 0.9-3.3 1.9-3.3 1.4-1.9 0.9-0.9 0.6-3.7-13.3 0.9-0.4 1.9-1 2.8-1.4 3.2-1.4 2.4-1 1.9-1.4 1.8-0.9 1-0.5 0.9-0.5 0.5-0.4z"/><path class="a" d="m275.5 341.1l8 12.7-1 0.5-2.3 1.9-3.3 1.9-3.7 2.3-2.4 1.9-2.8 1.4-1.8 1.4-1.5 0.5-0.9 0.9-0.9 0.5-6.6-13.7 1-0.4 0.9-0.5 0.9-0.9 2.4-1 1.8-1.4 2.4-1.9 3.7-1.9 2.8-1.9 2.4-1.8z"/><path class="a" d="m307.8 314.7l11.7 12.3-0.4 0.4-1.4 1-1.4 1.4-1.9 1.9-2.4 1.9-2.8 2.3-2.8 1.9-2.3 1.9-2.4 1.9-1.4 0.9-0.9 0.9-0.9 0.5v0.5l-10.3-13.7 0.9-0.4 0.9-1 1.4-0.9 1.9-1.4 2.4-1.9 2.3-1.9 2.3-1.9 2.4-2.4 1.9-1.4 1.4-0.9 0.9-0.9 0.5-0.5z"/><path class="a" d="m339.2 281.2l16.9 9.9h-0.5l-0.5 0.4-0.4 1-1 0.9-0.9 1.4-3.3 3.8-3.7 3.8-3.8 4.2-3.7 3.8-1 0.9-0.9 1-0.5 0.9-0.4 0.5h-0.5l-14.5-12.3 0.9-0.5 0.9-0.9 1-1.4 2.3-2.4 1.9-2.3 2.3-2.4 2.4-2.3 2.3-2.4 1.9-2.3 1.4-1.5 0.9-0.9 0.5-0.5z"/><path class="a" d="m367.3 240.5l21.5 6.3-0.4 0.4v0.5l-1 1-0.4 1.4-1 1.4-1.4 1.9-1.4 2.3-1.4 2.4-1.9 2.8-3.2 5.2-3.3 4.2-0.9 1.4-1 1-0.4 0.9-0.5 0.5v0.5l-20.2-9.5h0.5v-0.4l1-1 0.4-0.9 1-1.4 2.8-3.8 3.2-4.7 2.9-4.2 1.4-2.4 1.4-2 0.4-1.4 1-0.9 0.4-1v-0.5z"/><path class="a" d="m387.4 193.9l26.3 1.4v0.5l-0.5 0.5-0.5 0.9-0.4 1.4-0.5 1.4-1.9 5.2-2.3 6.1-2.4 5.7-2.3 5.2-0.5 1.4-0.9 1.4-0.5 0.9v1h-0.4l-24.9-4.7v-0.5l0.5-0.5 0.5-0.9 0.4-1 1-1.8 1.8-4.3 2.4-5.2 1.9-5.1 1.8-4.3 0.5-1.9 0.5-1.4 0.4-0.9z"/><path class="a" d="m425.4 140.6v1.4 1.4 1.9l-0.5 5.2-0.9 6.1-1 6.1-0.9 5.2-0.5 2.4v1.4l-0.4 0.9v0.5l-29.5 1.4v-0.5l0.4-0.9 0.5-1.4 0.5-1.9 0.4-4.7 1.4-5.7 0.5-5.2 0.5-4.2v-1.9l0.4-1.4v-0.9-0.5z"/><path fill-rule="evenodd" class="a" d="m420.2 86.8v0.4l0.5 0.5v0.5l0.5 1.4 0.4 1.9 1.4 4.7 1.4 5.6 1 5.7 0.9 5.3v3.7l0.5 1v0.5l-31.9 8.4v-0.4l-0.4-1v-3.3l-0.5-4.7-0.9-4.7-0.5-1.9-0.5-3.4-0.2-0.6 0.1 0.2-0.8-3.8v0.5l-0.9-3.3v-1.5zm-28.5 18.9l0.2 0.7-0.7-3zm0.3 0.9l0.1 0.5 1 3.8-0.5-2.4z"/><path class="a" d="m397.7 46.7l0.5 0.5 0.5 0.5 0.9 1.4 1 1.4 1.4 1.4 1.4 1.9 1.4 1.9 1.4 2.3 2.8 4.3 2.3 4.2 1 1.4 0.4 1.4 0.5 1h0.5l-29.1 13.6-0.4-0.9-0.5-0.9-0.9-1.5-1-2.3-1.4-2.8-1.4-2.4-2.8-4.2-0.9-1.4-1-1.5-0.9-1.4-0.9-0.9-0.5-0.5v-0.5z"/><path class="a" d="m364.5 19.8l0.9 0.4 1.4 1 1.4 0.9 3.8 1.9 3.7 2.8 2.8 1.9 2.4 1.9 2.3 1.9 1.4 0.9 1 1 0.4 0.4 0.5 0.5-24.3 17.1v-0.5l-0.5-0.5-1-0.9-1.4-0.9-1.8-1.5-1.9-1.8-2.3-1.9-2.4-1.4-2.3-1.9-1.9-1-1.4-0.9-0.9-0.5-0.5-0.6-0.5-0.4z"/><path class="a" d="m323.8 5.2h0.4l1 0.4h1.4l1.4 0.5 4.2 1 5.1 1.4 4.7 1.4 4.2 1.4 1.4 0.9 1.4 0.5h0.5l0.5 0.5-19.2 18.3v-0.4h-1l-0.9-0.5-1.4-0.5-3.7-1.4-3.8-1.4-4.2-1.4-3.8-0.9-1.4-0.5-1.4-0.5h-0.9z"/><path class="a" d="m288.6 1.9h5.2l5.1 0.4h4.2l1.9 0.5h1.4 1 0.4l-14 18.4h-1-0.9l-1.9-0.5h-3.7l-4.7-0.5h-4.7l-3.7-0.4-1.9 0.4h-0.9-1-0.4l10.7-18.3h1 1.4 1.8z"/><path class="a" d="m262.4 3.3l-8.4 17.9h-0.5-0.9-1-1.8l-3.8 0.9-5.1 0.5-4.7 0.9-3.8 1h-1.8l-1 0.5h-0.9-0.5l5.6-16.5h0.5l0.9-0.5h1.5l1.8-0.5 4.2-0.9 5.7-1 5.1-0.9 4.7-0.9h1.9 1.4l0.4-0.5z"/><path class="a" d="m217 13.2l-3.8 16h-0.4-1l-0.9 0.5-1.9 0.4-3.7 1.4-4.7 1.5-4.7 1.8-3.7 1.5-1.9 0.4-0.9 0.6-1 0.4h-0.4l1.4-14.6h0.4l1-0.5 1.4-0.5 1.4-0.9 4.7-1.4 5.1-1.9 4.7-1.9 4.7-1.4 1.8-0.5 1.4-0.5z"/><path class="a" d="m173.4 30.1v14.3h-0.4l-0.5 0.4-1.4 0.5-1.4 1-1.9 0.9-1.9 0.9-2.3 1-2.3 1.4-4.3 2.3-1.8 1-1.9 0.9-1.4 1-1.4 0.9-0.9 0.5-2.4-12.3v-0.4h0.5l0.4-0.5 1.5-0.5 1.4-0.9 1.8-1.4 2.4-1.4 2.3-1 2.4-1.4 2.8-1.5 2.3-1.4 2.3-1 1.9-0.9 1.4-1 1.4-0.4 1-0.5z"/><path class="a" d="m131.8 54.3l4.2 11.3h-0.5l-0.9 0.4-1 1-1.4 0.9-1.8 1.4-1.9 1-1.9 1.4-1.9 1.4-2.3 1.9-1.9 1.4-1.9 1.4-1.4 1-1.4 1.4-0.9 0.4-0.9 0.5v0.5l-6.1-9.9 0.4-0.5 0.5-0.4 1.4-1 1.4-0.9 1.9-1.4 1.9-1.5 4.2-3.3 4.7-3.3 1.8-1.4 1.9-1.4 1.9-0.9 0.9-1 0.5-0.4z"/><path class="a" d="m94.3 83l7 9-0.9 0.4-1 1-1.4 1.4-1.4 1.4-1.4 1.4-1.8 1.4-1.9 1.9-2.4 2.4-2.3 1.8-1.9 2.4-1.4 1-0.9 1-0.5 0.5v0.4l-8.9-7.1v-0.5l0.5-0.5 1.4-0.9 0.9-1.4 2.4-1.9 2.3-2.9 2.8-2.3 3.8-3.8 1.8-1.4 1.9-1.4 1.4-1.4 1-1 0.4-0.4z"/><path class="a" d="m61 116.1l10.3 6.1h-0.4l-0.5 0.5-0.9 1.4-1 0.9-1.4 1.9-1.4 1.4-3.3 3.8-1.8 2.8-1.9 2.4-1.4 1.9-1.4 1.4-0.5 0.9-0.4 1h-0.5l-11.7-3.8h0.5l0.4-1 1-0.9 0.9-1.9 2.8-3.3 3.3-4.2 1.9-2.4 1.8-1.9 1.4-1.8 1.4-1.5 1-1.4 0.9-0.9 0.5-0.5 0.4-0.5z"/><path class="a" d="m33.4 152.8l12.2 2.4v0.4l-0.5 0.5-0.4 1.4-1 1.4-1.4 1.5-0.9 1.8-2.4 4.3-2.3 3.8-2.3 3.7-0.5 1.4-1 1v1h-0.4l-13.6-0.6 0.5-0.8 0.4-1 1-1.9 2.3-3.8 2.4-4.7 1.4-1.9 1.4-2.3 1.4-1.9 0.9-1.9 0.9-1.9 1-0.9 0.4-1z"/><path class="a" d="m25.9 191.1v0.5l-0.4 0.4-0.5 1.4-0.5 1.4-0.9 1.9-1 1.9-1.4 4.3-1.8 4.2-0.5 1.9-0.5 1.4-0.4 1.4-0.5 1.4-0.5 0.5v0.5l-15.9 3.3v-0.5l0.5-1 0.4-0.9 0.5-1.9 0.9-1.9 0.5-1.8 1-2.4 0.9-2.4 1.9-4.7 0.9-2.3 0.9-1.9 0.5-1.4 0.9-1.4v-0.5l0.5-0.5z"/><path class="a" d="m40.9 307.1l0.9 0.9-1.4 1.4-0.9-1.4z"/><path class="a" d="m42.3 309l0.5 0.4v0.5l0.5 0.5-1.9 1.4v-0.5-0.5l-0.5-0.4z"/><path class="a" d="m43.7 310.8l1 1.5-1.4 1.9-1-1.4z"/><path class="a" d="m45.6 313.2v0.5l0.5 0.5v0.5h0.4v0.5l-1.8 1.4v-0.5h-0.5l-0.5-0.4v-0.5z"/><path class="a" d="m47.5 316.1l1.4 1.4-2.4 1.9-0.9-1.4z"/><path class="a" d="m49.8 318.5l1.4 1.9-2.3 2.3-1.4-1.9z"/><path class="a" d="m52.6 321.3v0.5h0.5v0.4l0.5 0.5 0.4 0.5-2.3 2.8-0.5-0.5v-0.4l-0.5-0.5-0.4-0.5z"/><path class="a" d="m55.4 324.6l2.4 1.9-2.4 3.3-2.3-2.4z"/><path class="a" d="m59.6 327.9l2.4 1.9-2.8 3.8-2.4-2.4z"/><path class="a" d="m63.9 331.2l2.8 2.4-2.8 3.7-2.9-2.3z"/><path class="a" d="m69 334.5l3.8 2.4-3.3 4.7-3.3-2.4z"/><path class="a" d="m75.6 338.3l4.2 2.3-3.3 5.2-4.2-2.4z"/><path class="a" d="m83.1 341.6l0.9 0.4h0.5l0.9 0.5 0.9 0.5 1 0.4h0.4 0.5l-3.3 6.2h-0.4-0.5l-0.9-0.5-1-0.5-0.9-0.4h-1l-0.4-0.5z"/><path class="a" d="m92 344.9h0.4 0.5l0.9 0.4 1 0.5h1.4l0.9 0.5h0.5l0.4 0.4-3.2 6.6h-0.5-0.5l-1.4-0.4-0.9-0.5h-1l-1.4-0.5h-0.4l-0.5-0.4z"/><path class="a" d="m102.7 347.2l1 0.5h0.9l1.4 0.5h1.4l0.9 0.4h1 0.4l-3.2 8h-0.5-0.5l-1.4-0.4h-1.4l-1.4-0.5h-0.9l-1-0.5h-0.4z"/><path class="a" d="m114.9 349.1h0.5 0.9 1.4l1.4 0.5h1.9 1.4l0.9 0.4-2.8 9h-1.4-1.4l-1.4-0.5h-1.9-1.4l-0.9-0.4z"/><path class="a" d="m139.7 349.6l-1.9 10.3h-0.4-1-0.9-1.4-1.9-1.8-1.5-0.9-0.5-0.4l2.8-10.3h0.5 0.4 0.5 1.9 1.8 1.4 1.4 1z"/><path class="a" d="m158.9 346.7l-1.4 11.8h-0.9l-1 0.5h-1.8l-2.4 0.5h-2.3l-1.9 0.4h-0.9-0.5-0.5l1.9-11.7h0.5 0.4 1 1.9l1.8-0.5 2.4-0.5h1.8 1l0.4-0.5z"/><path class="a" d="m180.9 341.6l0.5 12.7h-0.5-0.4l-1.4 0.5-2.4 0.4-2.8 1-1.9 0.4h-1.4l-1.4 0.5-1.4 0.5h-0.5-0.4l0.4-12.7h0.5l0.5-0.5h1.4l1.4-0.5 1.4-0.5 1.4-0.4 2.8-0.5 1.9-0.5 1.4-0.4h0.5z"/><path class="a" d="m205.7 331.7l2.9 13.6v0.5h-0.5l-0.9 0.5-1.5 0.4-1.4 0.5-1.8 1-2.4 0.4-1.8 1-1.9 0.4-1.9 1-1.4 0.5h-0.9l-1.4-13.7v-0.5h0.9l1.4-0.4 1.4-0.5 1.9-1 1.9-0.4 1.8-1 1.9-0.4 1.4-0.5 0.9-0.5 1-0.5h0.4z"/><path class="a" d="m232.9 317.5l6.1 13.7v0.5h-0.5l-0.9 0.4-1.4 1-1.9 0.9-1.9 1-2.3 1.4-2.3 0.9-2.4 1.4-1.9 1-0.9 0.4-0.9 0.5h-1v0.5l-4.2-15.1h0.5l0.9-0.5 1-0.4 1.8-1 1.9-0.9 2.3-1.4 1.9-1 1.9-0.9 1.9-1 0.9-0.4 0.9-0.5z"/><path class="a" d="m261.9 296.7l10.3 13.2v0.5l-0.9 0.4-0.9 0.5-1 1-1.4 1.4-1.8 1-3.8 2.8-2.3 1.4-2.4 1.9-1.8 1.4-1.5 0.5-0.9 1-0.5 0.4h-0.4l-8-14.7v-0.4h0.5l0.9-1 1.4-0.5 1.9-1.4 1.9-1.4 2.3-1.4 3.3-2.4 1.4-0.9 0.9-1.4 1.4-0.5 1-0.9z"/><path class="a" d="m291 269.9l15 11.3-0.5 0.9-0.9 0.9-1.5 1-1.8 2.3-2.4 1.9-2.3 2.4-2.3 2.3-2.4 2.4-2.3 1.9-1.4 0.9-1 1-0.4 0.4-0.5 0.5-12.7-13.7v-0.4l0.5-0.5 1-0.5 1.4-1.4 1.4-1.4 2.3-1.9 2.3-1.9 1.9-2.3 1.9-1.9 1.9-1.9 0.9-0.9 0.9-1 0.5-0.4z"/><path class="a" d="m316.7 235.8l21.1 7.6v0.4l-0.5 0.5-0.4 1.1-1 0.9-0.9 1.4-2.3 3.8-3.3 4.2-3.3 4.3-3.3 3.7-0.9 1-1 1.4-0.4 0.5-0.5 0.4v0.5l-18.7-11.3 0.9-0.5 0.5-0.9 1.4-1.4 1.4-2.4 1.9-2.3 1.8-2.4 1.9-2.5 1.9-2.8 1.4-1.9 0.9-1.4 1-0.9z"/><path class="a" d="m336.4 196.7l26.2 1.9v0.5l-0.4 0.9-0.5 1.4-0.5 1.5-1.9 4.7-2.3 5.2-2.8 4.7-1.9 4.7-0.9 1.4-1 0.9-0.4 1v0.4l-0.5 0.5-24.3-6.1v-0.5l0.4-0.5 1-1.4 0.4-1.4 2.4-3.7 1.8-4.3 2.4-4.2 1.4-4.3 0.9-1.4 0.5-0.9z"/><path class="a" d="m376.2 149.5v1 1.4l-0.5 1.9-0.4 4.7-1 5.2-0.9 5.6-1.4 4.7-0.9 3.9v0.9l-30 1 0.4-1.4 0.5-3 1-4.2 1.4-4.2 0.4-4.8 1-4.2v-1.4l0.4-1v-0.9-0.5z"/><path class="a" d="m373.4 107v0.5 1l0.5 1 0.4 1.4 0.5 4.2 0.9 4.7 0.5 4.8v1.8l0.5 2.4v1.4 1.4 1 0.4l-29.5 7.1h-0.5v-0.9-1-1.4-3.8l-0.5-4.2v-2.8l-0.4-2.4-0.5-2.3-0.5-1v-1.4-0.5-0.4z"/><path class="a" d="m357.9 73.1v0.5l0.5 0.4 0.5 1 0.9 1.4 0.9 1.4 1 1.4 0.9 1.9 1.4 1.9 1.9 3.8 0.9 1.4 0.5 1.9 0.5 1.4 0.4 0.9 0.5 1-27.6 12.7v-1l-0.5-0.9-0.5-0.9-0.4-1.5-1-1.8-1.4-2.9-0.9-1.9-0.9-1.4-0.5-1.4-0.9-1.4-0.5-0.9-0.5-1-0.4-0.4z"/><path class="a" d="m332.7 49.6l0.4 0.4 1 0.5 1.4 0.9 1.8 1 1.9 1.9 1.9 1.4 1.9 1.4 1.4 1.4 1.4 0.9 0.9 1.5 1.4 0.9 0.5 0.5 0.4 0.4 0.5 0.5-23.9 16-0.4-0.4-1-0.5-0.9-1-1-0.9-0.9-1.4-2.3-2.4-1.9-1.4-1.9-1.4-1.4-0.9-0.9-1-1-0.4-0.4-0.5z"/><path class="a" d="m300.8 35.3h0.9l1 0.5 1.4 0.5 1.9 0.4 2.8 1 2.3 1 3.8 1.4 1.8 1 1.4 0.4 1.4 0.5 1 0.5 0.4 0.5h0.5l-19.2 18.3h-0.5l-0.4-0.4-1-0.5-0.9-0.5-2.8-1.4-3.3-1.4-1.9-0.5-2.3-0.9-1.9-0.5-0.9-0.5-0.9-0.4h-0.5-0.5z"/><path class="a" d="m265.7 30.6h0.9 1.4l3.8 0.5h4.2l4.2 0.4 1.9 0.5h1.8 1.5l0.9 0.5h0.9 0.5l-14.5 18.9h-0.5l-0.9-0.4h-1.4l-1.4-0.5h-1.9l-3.8-0.5h-2.3l-2.3-0.4h-1.9-1.9-0.9-0.5l11.2-19z"/><path class="a" d="m250.7 31.5l-9.4 18.1h-0.4-1l-1.8 0.4h-1.4-1.9l-3.8 0.5-2.8 0.5-2.3 0.4-1.9 0.5h-1.4-0.9l-1 0.5 6.1-17.6 1-0.4h0.9l1.9-0.5 3.7-0.5 4.2-0.9 4.2-0.5h2.4l1.9-0.5h1.4 0.9 0.9z"/><path class="a" d="m212.3 38.1l-4.2 17.1h-0.9l-1 0.5-1.4 0.4-2.3 0.5-2.4 0.5-2.3 0.9-3.8 1.4-1.8 0.5-1.4 0.5-1.4 0.5-1 0.4-0.9 0.5 1.4-15.5h0.5l0.4-0.5 1.4-0.5 1.4-0.5 1.9-0.9 1.9-0.5 4.2-1.4 4.2-1.4 3.8-1.4 1.8-0.5h1z"/><path class="a" d="m175.3 51.9v15.1h-0.5-0.4l-1 0.5-1.4 0.9-1.4 0.5-1.8 0.9-3.8 1.9-2.3 1.4-2.4 0.9-2.3 1-1 0.9-0.9 0.5-0.9 0.5-2.4-13.2 1-0.5 0.9-0.9 1.4-0.5 3.8-1.9 3.7-2.3 4.2-1.9 1.9-1 1.9-0.9 1.4-1 1.4-0.4 0.4-0.5z"/><path class="a" d="m139.7 71.7l3.8 12.2-1 0.5-0.9 0.5-0.9 0.9-1.9 1.4-2.4 1.5-2.3 1.4-2.3 1.9-1.9 1.4-1.9 1.4-1.4 0.9-0.9 0.5-0.5 0.5v0.4l-6.6-10.8h0.5l0.5-0.5 0.9-0.9 1.4-1 2.4-1.4 2.3-1.9 2.3-1.8 2.9-1.9 2.3-1.4 2.3-1.9 1.4-1 1-0.4 0.4-0.5z"/><path class="a" d="m106.9 95.7l7.5 9.9-0.4 0.5-1 0.9-0.9 1.1-1.9 1.4-1.9 1.9-2.3 1.8-1.4 1.5-1.4 1.4-1.4 0.9-1.4 1.4-1 1-0.4 0.9-1 0.5-9.3-7.6 0.9-0.9 0.9-0.5 1-1.4 1.4-1.4 1.4-1.5 3.3-3.3 2.3-1.9 2.4-1.9 1.8-1.9 1.4-0.9 1-0.9 0.4-0.5z"/><path class="a" d="m78.4 124.1l10.7 6.6h-0.4l-0.5 0.9-0.5 0.5-0.9 1.4-1.4 1.4-1.9 1.9-1.9 2.4-2.3 3.3-1.4 1.4-0.9 1.4-1 0.9-0.4 1-0.5 0.4-12.2-4.2 0.5-0.9 0.9-1 1-0.9 0.9-1.4 1.4-1.9 2.8-3.3 1.9-2.8 1.9-1.9 1.8-1.9 1-1.4 0.9-1 0.5-0.4z"/><path class="a" d="m54.5 155.6l13.1 2.9v0.4l-0.5 0.5-0.4 1-1 0.9-0.9 1.9-1.4 2.3-1.4 2.4-1.9 3.3-0.9 1.4-1 1.4-0.4 1.4-0.5 1-0.5 0.4-15-0.4v-0.4l0.5-0.6 0.5-0.9 0.9-1.4 1-1.9 0.9-1.4 2.3-3.8 1.4-2.8 1.4-2.4 1.4-1.9 1-1.4 0.5-0.9 0.4-1z"/><path class="a" d="m60.6 257.6v0.9l-1.4 1v-1z"/><path class="a" d="m61 259.5v0.9l-1.4 1v-1z"/><path class="a" d="m61.5 261.4l0.5 0.9-1.9 1.4-0.5-1.4z"/><path class="a" d="m62.4 263.3l0.5 1.4-1.9 1.4-0.4-1.4z"/><path class="a" d="m63.4 265.6l0.5 1.4-1.9 1.9-1-1.9z"/><path class="a" d="m64.3 268v0.4l0.5 0.5v0.5l0.5 0.5-2.4 1.8-0.5-0.4v-0.5l-0.4-0.5v-0.4z"/><path class="a" d="m65.7 270.8l1 1.9-2.8 1.9-0.5-1.9z"/><path class="a" d="m67.1 273.6l1.4 1.9-2.8 2.4-1.4-1.9z"/><path class="a" d="m69.5 276.9v0.5l0.4 0.5 0.5 0.4v0.5l-2.8 2.8-0.5-0.4-0.4-0.5-0.5-1z"/><path class="a" d="m71.8 280.2l0.5 0.5v0.5l0.5 0.4 0.4 0.5v0.5l-3.3 2.8-0.4-0.5-0.5-0.4-0.5-0.5v-0.5z"/><path class="a" d="m74.6 283.5v0.5l0.5 0.5 0.5 0.4 0.4 0.5 0.5 0.5-3.7 3.7-0.5-0.4-0.5-0.5-0.5-0.5-0.4-0.4v-0.5z"/><path class="a" d="m78.4 287.3v0.5l0.9 0.9 0.5 0.5 0.4 0.4h0.5l-4.2 4.8v-0.5l-0.5-0.5-0.4-0.5-1-0.9h-0.4v-0.5z"/><path class="a" d="m82.6 291.1l2.8 2.8-4.2 4.7-2.8-2.4z"/><path class="a" d="m87.7 294.8v0.5h0.5l0.5 0.5 0.9 0.4 0.5 0.5 0.4 0.5h0.5l0.5 0.4-4.7 5.7h-0.5l-0.4-0.5-1-0.4-0.4-0.5-0.5-0.5-0.5-0.5h-0.4z"/><path class="a" d="m94.3 298.6v0.5h0.5l0.9 0.4 0.5 0.5 0.9 0.5h0.9l0.5 0.4-4.7 7.1-0.4-0.5-1-0.4-0.9-0.5-0.5-0.5h-0.9l-0.5-0.4z"/><path class="a" d="m101.8 302.4h0.5 0.4l1.9 0.9 0.9 0.5h1l0.4 0.4h0.5l-4.7 8.1h-0.4l-0.5-0.5h-1l-0.9-0.5-0.9-0.5-1-0.4h-0.4l-0.5-0.5z"/><path class="a" d="m111.6 305.2h1l0.9 0.5h0.9l1.4 0.4h1l0.9 0.5-4.2 9.5h-0.5l-0.4-0.4h-1.4l-1-0.5-1.4-0.5h-0.9l-1-0.5h-0.4z"/><path class="a" d="m122.9 307.1h0.9 1.4l1.4 0.4h1.4 0.9 1 0.5l-3.8 11h-0.5-0.9-1.4l-1.4-0.5h-1.4l-1.4-0.5h-1-0.4z"/><path class="a" d="m145.3 307.1l-2.8 12.3h-0.9-0.5-1.9-1.8-1.9-1.4-0.9-0.5l3.7-11.9h1.4 1.4 1.5 1.8 1.4l1-0.4z"/><path class="a" d="m162.7 304.2l-1 13.8h-0.4-0.5l-0.9 0.5h-1.9l-2.4 0.4-2.3 0.5h-1.9-0.9-0.5-0.4l2.8-13.3h0.4l1-0.4h1.8l1.9-0.5h1.9l1.9-0.5h0.9z"/><path class="a" d="m182.8 298.1l1.4 14.7h-0.5l-0.9 0.4-0.9 0.5-1.4 0.5-1.9 0.5-1.4 0.5-2.8 0.5-1.9 0.4-1.4 0.5h-0.5-0.4l0.4-14.7h0.5 0.5l0.9-0.5 1.9-0.5 2.3-0.4 1.9-0.5 1.4-0.5 0.9-0.4 1-0.5h0.9z"/><path class="a" d="m205.3 288.2l4.7 14.6-0.5 0.5h-0.5l-0.9 0.5-0.9 0.4-1.5 1-1.8 0.5-1.9 0.9-1.9 0.9-1.8 1-1.9 0.5-1 0.4-0.9 0.5h-0.5l-2.3-15.5 0.5-0.5h0.4l1.4-0.5 1.4-0.5 1.4-0.9 1.9-0.5 2.4-1.4 2.3-0.9 0.9-0.5z"/><path class="a" d="m229.2 272.7l8.9 14.6-0.5 0.5-0.9 0.4-1 1-1.9 0.9-1.8 1.4-2.4 1.4-1.8 1-1.9 1.4-1.9 0.9-1.4 1-0.5 0.4h-0.9v0.5l-6.6-16 0.5-0.5 0.9-0.4 1-0.5 1.4-1 1.9-0.9 1.8-1.4 1.9-0.9 1.4-1.5 1.9-0.9 0.9-0.5 0.5-0.4z"/><path class="a" d="m253.5 251.5l14.1 12.7-0.5 0.5-0.9 0.9-1 1-1.9 1.8-1.8 1.5-2.4 1.8-1.8 1.9-2.4 1.9-1.4 1.4-1.4 1-0.9 0.9-0.5 0.5-11.7-15.1 0.5-0.5 0.9-0.4 0.9-1 1.4-0.9 1.9-1.4 1.9-1.9 1.4-1.4 1.9-1.4 1.4-1.5 0.9-0.9 0.5-0.5 0.4-0.4z"/><path class="a" d="m275.5 224.5l20.6 9h-0.4l-0.5 0.9-0.5 1-0.9 0.9-1.9 2.4-1.9 2.3-1.8 2.4-1.9 2.4-1.9 2.4-1.9 1.9-0.9 0.9-0.9 1-0.5 0.9-17.8-11.9 0.5-0.9 0.4-0.5 1-0.9 1.4-1.9 1.9-1.9 1.4-1.9 1.8-1.9 1.4-1.9 1.4-1.8 0.5-1 1-0.9v-0.5z"/><path class="a" d="m291.9 193.4l26.7 2.4-0.5 0.9-0.4 1-0.5 1.4-1.9 3.8-2.3 4.2-1.9 4.7-2.3 3.3-1 1.9-0.4 0.9-0.5 1-24.8-6.6 0.4-0.5v-0.5l1-0.9 0.4-0.9 1-1.9 1.4-2.4 1.4-2.3 0.9-2.9 1.4-1.9 0.5-1.8 0.9-1.5 0.5-0.9z"/><path class="a" d="m328.9 158.9v1l-0.5 0.9v1.4l-0.9 3.8-0.5 4.3-1.4 3.7-0.4 2.4-0.5 1.5-0.5 1.4v1.4l-0.4 0.5v0.5h-27.2v-0.5l0.5-1v-1.4l0.4-1.4 0.5-1.4 0.9-3.4 1-3.8 0.4-2.8 0.5-0.9v-1-0.9z"/><path class="a" d="m328.4 126v0.4l0.5 1v1.4l0.5 1.4v1.9l0.4 3.3v2.8 2.4 1.9 1.4 0.9 1l-27.6 6.6v-0.5-1-0.9-1.9-1.9-2.3l-0.5-2.9v-1.4-1.4l-0.4-1.4v-0.5-0.4z"/><path class="a" d="m318.6 98.1v0.4 0.5l0.5 1 0.9 0.9 0.5 1.4 0.9 1.9 0.9 1.9 1.5 3.4 0.4 1.4 0.5 0.9 0.5 1.4 0.4 1v0.5l-26.2 11.7v-0.4l-0.5-0.5v-0.9l-0.4-1.5-0.5-0.9-0.9-2.8-1-2.4-1.4-1.9-0.4-1.4-0.5-0.5v-0.4z"/><path class="a" d="m300.3 78.3l0.5 0.5 0.9 0.4 0.5 0.5 1.4 1.4 1.4 1 1.9 1.4 0.9 1.4 1 0.9 0.9 1 0.9 0.9 1 1 0.4 0.4 0.5 0.5v0.5l-23.4 15.5-0.5-0.5v-0.4l-0.9-1-0.5-0.4-0.9-1-0.9-0.9-1-1-1.4-1.9-1.9-1.4-0.9-0.9-0.5-0.5v-0.5z"/><path class="a" d="m276.5 65.6l0.9 0.4 1.4 0.5 1.4 0.5 1.4 0.5 2.8 1.4 1.9 0.4 1.9 1 1.4 0.9 0.9 0.5 0.9 0.5 0.5 0.4-19.2 17.9-0.9-0.4-1-0.5-1.8-1.4-2.4-1-2.3-1.4-1-0.4h-1.4l-0.9-0.5-0.5-0.5h-0.4z"/><path class="a" d="m248.4 60.4h0.4 1l1.4 0.5h2.8l3.3 0.4 2.3 0.5h2.3l1.4 0.5h1.4l1 0.4h0.5l-14.6 18.9h-0.4-1l-0.9-0.5-2.3-0.5-2.4-0.4h-2.8l-2.3-0.5h-1.4-1z"/><path class="a" d="m236.7 60.4h0.4l-9.3 18.8h-1-0.4-1-2.8l-2.8 0.5h-2.8l-2.8 0.5-1.4 0.4h-0.5-0.5l6.6-18.3h0.5 0.9l1.4-0.5h1.4l1.9-0.5h3.3l3.7-0.4 2.8-0.5h1.4z"/><path class="a" d="m206.7 64.6l-4.7 17.9h-0.5l-0.9 0.5h-0.9l-2.9 0.9-2.8 0.5-3.2 1-2.4 0.9-1.4 0.5-0.9 0.4h-0.5l2.4-16.4 0.4-0.5h1l1.4-0.5 2.8-1.4 3.7-0.9 3.3-1 3.3-0.9 1.4-0.5h0.9 0.5z"/><path class="a" d="m176.2 75v16h-0.4-0.5l-0.5 0.5-0.9 0.5-1.9 0.9-1.8 0.9-1.9 0.5-1.9 1.4-1.9 0.5-1.8 0.9-1 0.5-0.4 0.5-1 0.4-2.3-14.1v-0.5h0.9l0.5-0.4 1.4-1 1.9-0.9 2.3-1 1.9-1.4 2.3-0.9 2.4-1 1.8-0.9 1.4-0.5 1-0.4h0.4z"/><path class="a" d="m147.2 90.5l4.2 13.2-0.4 0.5h-0.5l-0.5 0.5-1.4 0.4-1.4 1.6-1.9 0.8-1.4 1.5-1.8 1-1.9 1.4-1.4 0.9-1 0.9-0.9 0.5h-0.5v0.5l-6.5-11.9h0.5l0.4-0.5 1-0.4 0.9-1 1.9-1.4 1.8-1.4 1.9-1.4 2.4-1.4 1.8-1.4 1.9-1 1.4-0.9 0.5-0.5z"/><path class="a" d="m120 110.4l8 10.4-0.5 0.5-0.9 0.4-0.5 1-1.4 0.9-1.8 1.4-1.4 1.4-1.9 1.9-1.4 1.4-1.4 1-1 0.9-0.4 0.5-0.5 0.5v0.4l-9.8-8.4v-0.5h0.4l1-1 0.9-0.9 1.4-1.4 1.9-1.9 1.9-1.4 1.8-1.9 1.9-1.9 1.4-1.4 0.9-0.5 1-0.9z"/><path class="a" d="m96.6 133.5l10.8 7.1-0.5 0.4-0.4 0.5-1 1-0.9 1.4-1.4 1.9-1.4 1.4-1.4 1.9-1.4 1.4-1 1.4-0.4 0.9-0.5 0.5-0.5 0.5v0.4l-13.1-4.7v-0.4l0.5-0.5 0.5-1 0.9-0.9 1.4-1.4 1.4-1.9 1.4-2.4 1.9-1.8 1.4-1.9 1.4-1.4 0.9-1 0.5-0.9 0.5-0.5z"/><path class="a" d="m89.1 218.9v0.9l-1.4 0.5v-0.5z"/><path class="a" d="m89.1 220.3v0.9l-1.4 1v-1z"/><path class="a" d="m89.6 221.7v0.5 0.4 0.5l-1.9 0.5v-0.5-0.5z"/><path class="a" d="m89.6 223.6v0.9l-1.9 1v-1z"/><path class="a" d="m89.6 225.5v0.4l0.5 0.5-2.4 1.4v-0.4-0.5-0.5z"/><path class="a" d="m90.1 227.4v1.4l-2.4 1.4v-1.4z"/><path class="a" d="m90.5 229.7l0.5 1.4-2.8 1.4-0.5-1.4z"/><path class="a" d="m91 232.1l0.5 0.4v1l-2.8 1.9-0.5-0.5v-0.5-0.4z"/><path class="a" d="m92 234.4v0.5 0.5l0.4 0.4v0.5l-3.3 2.4v-0.5l-0.4-0.5v-0.9z"/><path class="a" d="m92.9 237.2v0.5l0.5 0.5v0.5 0.4l-3.8 2.9v-0.5-1-0.4h-0.5v-0.5z"/><path class="a" d="m94.3 240.5v0.5l0.5 0.5v0.5 0.4l-3.8 3-0.5-0.5v-0.6-0.5l-0.4-0.4z"/><path class="a" d="m95.7 243.4v0.4l0.5 0.5v0.6l0.4 0.5v0.4h0.5l-4.7 3.3v-0.4l-0.4-0.5-0.5-0.5v-0.5z"/><path class="a" d="m98 247.2l0.5 1 0.5 0.5v0.4h0.4l-4.6 4.3h-0.5v-0.5l-0.5-0.5-0.4-0.9v-0.5h-0.5z"/><path class="a" d="m100.8 250.5l0.5 0.5v1l0.5 0.4 0.5 0.5-5.2 4.7-0.5-0.5-0.4-0.4-0.5-0.5v-0.5l-0.5-0.4z"/><path class="a" d="m104.1 254.3v0.5l1 0.5 0.4 0.4 0.5 0.5 0.5 0.5-5.7 5.6h-0.4v-0.5l-1-0.9-0.4-0.5-0.5-0.4z"/><path class="a" d="m108.3 257.6l0.5 0.5 0.5 0.4 0.4 0.5 0.5 0.5 0.5 0.5h0.5l-5.7 7-0.4-0.4-0.5-0.5-0.9-0.5-0.5-0.5-0.5-0.4h-0.4v-0.5z"/><path class="a" d="m113.5 260.9l0.5 0.5 0.4 0.4 1 0.5 0.4 0.5h1v0.5h0.4l-6 8-0.5-0.5h-0.5l-0.9-0.5-1-0.4-0.4-0.5-0.5-0.5z"/><path class="a" d="m120 264.2h0.5 0.5l0.5 0.5 0.9 0.4h0.5l0.9 0.5h0.5v0.5l-5.7 9.4-0.9-0.5-0.5-0.4h-0.9l-0.9-0.5-1-0.5h-0.4v-0.4z"/><path class="a" d="m128 266.6h0.5 0.4l1 0.4h0.9l1 0.5h0.9 0.5 0.4l-5.6 11.3-0.9-0.5h-1l-0.9-0.4h-1.4l-0.9-0.5h-0.5-0.5z"/><path class="a" d="m137.8 267.5l0.5 0.5h0.5 0.9 1.4 1l1.4 0.4h0.4 0.5l-4.7 12.3h-0.9-1.4-1.4-1.4l-1-0.5h-0.9-0.5z"/><path class="a" d="m157 267l-2.8 14.2h-0.4-1-1.4l-1.8 0.4h-1.5-1.4-0.9-0.5l4.3-14.1h0.9 1.4 1.4l1.4-0.5h1.4z"/><path class="a" d="m172 263.3l-0.4 15-0.5 0.5h-0.5-0.9l-1.4 0.5-1.9 0.4-2.3 0.5-1.4 0.5h-1-0.4-0.5l2.3-15.6h0.5 0.9l1.4-0.4 1.9-0.5 1.4-0.5h1.4l1-0.4z"/><path class="a" d="m188.9 256.2l2.8 16-0.9 0.5-1 0.5-1.8 0.4-2.4 1-2.3 0.9-1.9 1h-0.9l-1 0.4-0.9-16.5h0.5l0.4-0.4h0.5l1.9-1 1.8-0.5 1.9-0.9 1.4-0.5 1-0.4 0.4-0.5z"/><path class="a" d="m206.7 245.4l7.5 15.5-0.5 0.5-0.5 0.4-0.9 0.5-1.4 0.5-1.4 1.4-1.9 0.9-1.9 1-1.4 0.9-1.4 0.5-0.9 0.9h-0.9l-0.5 0.5-5.2-16.9h0.5l0.5-0.5 0.9-0.5 1.9-0.9 1.9-1.4 1.8-1 1.9-1.4 0.5-0.5h0.9v-0.4z"/><path class="a" d="m224.5 230.2l13.6 13.2-0.5 0.4-0.5 0.5-0.9 1.1-1.4 1.4-1.9 1.4-1.4 1.4-1.9 1.4-1.4 1-1.8 1.4-0.5 0.4-1 1h-0.4v0.5l-11.3-16.2h0.5l0.5-0.4 0.4-0.5 0.5-0.5 1.4-0.9 1-1 1.4-0.9 2.3-1.9 1.4-1.4 0.9-0.9 0.5-0.5z"/><path class="a" d="m240.4 210.4l20.6 8.9-0.5 0.5-0.4 1-1 0.9-0.9 1.4-0.9 1.4-2.4 2.9-1.4 1.8-1.4 1.5-1.4 1.8-0.9 1-1 0.5-0.4 0.4v0.5l-17.8-12.7h0.4v-0.5l0.5-0.5 0.9-0.9 1-1 1.4-1.4 0.9-1.4 1.9-2.3 1.4-1.9 0.9-1 0.5-0.4z"/><path class="a" d="m252.1 190.6l24.4 2.4v0.4 0.5l-0.5 0.9-0.5 1-0.9 1.4-0.5 1.4-1.9 2.8-0.9 1.9-0.9 1.9-1 1.9-0.9 0.9-0.5 1v0.5h-0.4l-22-6.2v-0.4l0.4-1 0.5-0.5 1.4-2.3 1.4-1.9 0.9-2.4 0.5-1.4 0.5-0.9 0.4-0.9 0.5-0.5z"/><path class="a" d="m284.9 167v0.9l-0.5 1.4-0.5 1.4v1.4l-0.9 2.9-0.5 1.8-0.4 2-0.5 1.9-0.5 1-0.4 0.9v0.5h-25.3l0.5-0.5v-0.5l0.4-0.9v-1.4l0.5-1.4 0.5-1.6 0.9-2.3 0.5-1.9v-0.9-1h0.4z"/><path class="a" d="m285.8 142.5v0.4 1l0.5 0.9v1.4 1.9 1.9 2.8 2.4 0.9 0.5 0.5 0.4l-26.2 5.7v-0.5-0.5-0.9l0.4-1.9v-1.9-1.4-1.4-0.9l-0.4-1v-0.4-0.5z"/><path class="a" d="m280.2 122.2l0.5 0.9 0.4 1 0.5 1.9 0.9 1.9 1 2.3 0.4 2.4 0.5 0.9v0.5 0.4l-25.3 11.4v-0.5-0.5-0.9l-0.4-1.4-0.5-1.9-0.9-1.9-0.5-1.4-0.5-1v-0.4z"/><path class="a" d="m268 106.1v0.6l0.5 0.3 0.9 0.5 1.4 1.5 1.4 1.9 1.4 1.4 1.5 1.9 0.4 0.5 0.5 0.9-22.5 15.1h-0.5v-0.5l-0.4-0.9-1-1-0.9-1.4-1.4-1.4-0.9-0.9-0.5-1h-0.5v-0.5z"/><path class="a" d="m251.2 95.7h0.4l0.5 0.5 0.9 0.5 1.4 0.4 1 0.5 1.4 0.9 2.3 1 1.4 0.9 1 1h0.4l0.5 0.4-19.2 18-0.5-0.4h-0.4l-0.5-0.5-1.4-0.9-1.4-1-1.4-0.9-0.9-0.5-1-0.5-0.9-0.4z"/><path class="a" d="m231 91h0.5 0.5 1.4l1.8 0.5 2.4 0.5 2.3 0.4 2.4 0.5h0.4l1 0.5h0.4l-14.9 19.4-0.5-0.5h-0.5-0.4l-1.9-0.5-1.9-0.4-1.4-0.5h-1.9l-0.9-0.5h-0.5z"/><path class="a" d="m221.7 90.5h0.4 0.5 0.5l-10.3 19.5h-0.5-0.5-0.4-1.9-2.3-1.9l-1.9 0.4h-0.9-0.5l7-18.9h1l0.9-0.5h2.3l2.8-0.5h2.4 2.3z"/><path class="a" d="m200.1 92.9l-5.1 18.5v0.4h-1-0.9l-1.9 0.5-1.8 0.5-2.4 0.4-1.9 0.5-0.9 0.5-0.5 0.5h-0.4l2.3-18h0.5 0.4l1.5-0.5 2.3-1 2.8-0.4 2.3-1 2.4-0.4h1.4z"/><path class="a" d="m177.2 100l-0.5 17h-0.5l-0.4 0.5h-1l-1.4 0.5-0.9 0.9-1.4 0.5-2.3 0.9-1.9 1-0.5 0.4h-0.5l-0.4 0.5-2.8-15.5h0.4 0.5l0.5-0.6 0.9-0.5 1.4-0.9 1.9-0.5 1.4-0.9 1.9-1 1.8-0.5 1.4-0.9 1-0.5 0.9-0.4z"/><path class="a" d="m154.7 111.4l3.7 14.6-0.4 0.4-1 0.5-1.4 0.5-0.9 0.9-1.4 1-1.9 1.4-1.8 0.9-0.5 0.5-0.5 0.5h-0.5v0.4l-7-12.7h0.5l0.5-0.5 0.4-0.4 1-0.5 1.4-0.9 1.4-1 1.4-1.4 1.9-0.9 1.4-1 1.4-0.9 1.4-1 0.4-0.4z"/><path class="a" d="m133.6 126.4l8.5 11.3h-0.5l-0.5 0.5-0.9 0.5-1 0.9-0.9 1-1.4 1.4-1.4 1.4-1.9 1.4-0.4 0.5-0.5 0.9h-0.5l-10.3-8.9v-0.5h0.5l0.5-0.9 0.9-0.5 0.9-1.4 1.4-1 1.4-1.4 1.4-1.4 1.5-0.9 0.9-1 0.9-0.9 1-0.5z"/><path class="a" d="m122.9 193v0.9h-1.4v-0.5z"/><path class="a" d="m122.9 193.9v0.9h-1.9l0.5-0.4z"/><path class="a" d="m122.9 195.3v0.5l-1.9 0.5v-0.5-0.5z"/><path class="a" d="m122.9 196.3l-0.5 0.4-1.9 1v-1z"/><path class="a" d="m122.4 197.2v0.5 0.4l-2.4 1v-0.5l0.5-0.5z"/><path class="a" d="m122.4 198.6v1l-2.4 0.4v-0.4z"/><path class="a" d="m122.4 200v0.5 0.5 0.4l-2.8 1v-0.5-0.5-0.4z"/><path class="a" d="m122.4 201.9v1l-3.3 1.4v-0.5l0.5-0.5v-0.4z"/><path class="a" d="m122.4 203.8v0.9l-3.3 1.5v-1.5z"/><path class="a" d="m122.9 205.7v0.5 0.4l-3.8 1.9v-1.4z"/><path class="a" d="m123.3 207.6v0.4 0.5 0.5l-4.2 1.9v-0.5l-0.5-0.5v-0.4z"/><path class="a" d="m123.8 209.5v0.4 0.5 0.5 0.4l-4.7 2.4v-0.9-0.5z"/><path class="a" d="m124.3 211.8v0.5l0.4 0.5v0.4 0.5l-5.1 3.3v-0.5l-0.5-0.5v-0.9z"/><path class="a" d="m125.2 214.6h0.5v0.5 0.9h0.4l-6.1 3.8v-0.9h-0.4v-0.5z"/><path class="a" d="m126.6 217h0.5v0.5 0.4l0.4 0.5v0.5l-6 4.7-0.5-0.5v-0.5l-0.5-0.4v-0.5z"/><path class="a" d="m128.5 219.8h0.4v0.5l0.5 0.5 0.5 0.4v0.5l-6.6 5.7-0.4-0.5-0.5-0.5v-0.9h-0.5v-0.5z"/><path class="a" d="m131.3 222.2v0.4l0.5 0.5 0.4 0.5v0.5h0.5l-7 7-0.5-0.4-0.5-0.5-0.4-0.5-0.5-0.5v-0.4z"/><path class="a" d="m134.1 225h0.5v0.5l0.4 0.4h0.5l0.5 0.5-7.1 8.5-0.4-0.5-1-0.4-0.4-0.5-0.5-0.5z"/><path class="a" d="m138.3 227.4l0.5 0.4h0.4l1 0.5 0.5 0.5-7.5 9.4h-0.5l-0.9-0.5-1-0.5-0.4-0.4z"/><path class="a" d="m143 228.8v0.4h0.9l0.5 0.5h0.9l0.5 0.5h0.5l-7.1 11.3h-0.4l-0.5-0.5h-0.9l-1-0.5-0.9-0.4h-0.5z"/><path class="a" d="m149.1 230.2h0.9l1 0.5h0.9 0.5 0.4l-6.1 13.1h-0.4-0.5-0.9l-1-0.4h-0.4-1l-0.4-0.5h-0.5z"/><path class="a" d="m160.8 230.2l-4.7 14.7h-0.5l-0.4 0.5h-1-1.4-0.9-0.9l-0.5-0.5h-0.5l6.1-14.7h0.5 0.9 0.5 1.9 0.4z"/><path class="a" d="m169.7 227.8l-1.9 16.5h-0.9l-1.4 0.6h-1.4l-1.4 0.5h-1-0.9-0.5l4.2-16.6h0.5 0.9l1-0.5h1.4l0.5-0.5z"/><path class="a" d="m180 223.6l1.9 16.9h-0.5l-0.9 0.5-1.4 0.5-1.5 0.5-1.4 0.9-1.4 0.5h-0.9-0.5l0.5-17.5 0.9-0.4h1l0.9-0.5 1.4-0.5 1-0.4 0.4-0.5z"/><path class="a" d="m190.3 217l7.5 16-0.5 0.5h-0.5l-0.4 0.5-1.9 0.9-1.4 0.9-1.9 1-1.4 0.9-0.9 0.5h-0.5v0.5l-4.7-17.9h0.5l0.9-0.5 1-0.5 0.9-0.9 1.4-0.5 1-0.5 0.4-0.4z"/><path class="a" d="m200.6 208l14 13.2v0.5l-0.4 0.5-1 0.4-1.4 1.5-1.8 1.4-1.9 1.4-1.9 1.4-0.5 0.5-0.4 0.4h-0.5l-10.8-16h0.5l0.5-0.4 0.4-0.5 1-1 0.9-0.9 1.4-0.9 1-1 0.4-0.5z"/><path class="a" d="m209.5 198.1l18.7 8.1v0.4l-0.4 0.5-0.5 0.9-0.9 1-1 0.9-0.9 1.4-1.9 1.5-0.9 1.8-1 0.5-0.4 0.5v0.4l-16-11.7 0.5-0.5 0.5-0.5 0.4-0.9 1.5-1 0.9-1.4 0.5-0.9 0.4-0.5z"/><path class="a" d="m216 187.8l22.1 2.3v1l-0.5 0.5-0.5 1.4-0.9 0.9-0.5 1.4-1.4 1.9-0.9 1.4-0.5 1v0.4h-0.5l-20.1-5.6v-0.5l0.5-0.9 0.9-1 0.5-0.9 0.9-1.4 0.5-1v-0.4z"/><path class="a" d="m244.1 173.6l-0.4 0.9v0.5l-0.5 1.4v1l-0.5 1.4-0.4 1.9-1 1.4v1l-0.4 0.4v0.5l-23-0.5v-0.4l0.5-0.5v-0.9l0.5-1.5 0.4-1.4 0.5-0.9v-0.5-0.6z"/><path class="a" d="m245.6 158v0.5 0.9 1.4 1.9 1.4 1.9l-0.5 1v0.4l-24.4 5.2v-0.9-1l0.5-1.4v-0.9-1-0.9z"/><path class="a" d="m242.7 144.3v0.5 0.5l0.5 0.5 0.5 0.9 0.4 1.9v1.4l0.5 1.4v0.5l0.5 0.5-24.4 10.3v-0.5-0.9l-0.4-0.9-0.5-1.5v-0.4-0.5l-0.5-0.5z"/><path class="a" d="m235.7 133.5v0.5h0.5l0.5 0.4 0.4 1 1 1.4 0.9 0.9 0.9 1.5v0.4l0.5 0.5-22.5 14.6v-0.5-0.4l-0.4-0.5-0.5-0.9-1-1-0.4-0.5-0.5-0.4v-0.5z"/><path class="a" d="m225.4 126l0.5 0.4 0.5 0.5 1.4 0.5 1.4 0.9 0.9 0.5 0.9 0.9 0.5 0.5h0.5l-19.2 17.9v-0.5h-0.5l-0.5-0.4-0.9-1-1.4-0.9h-0.9v-0.5z"/><path class="a" d="m212.8 122.2h0.4 1l0.9 0.5 1.9 0.4 1.4 0.5h1.4l0.5 0.5h0.4l-15 19.3h-0.4-0.5l-0.9-0.5h-1l-0.9-0.4h-0.9l-0.5-0.5h-0.5z"/><path class="a" d="m202.9 121.7h1.4 1.9 1 0.4l-10.8 19.8h-0.4-0.5-0.9-1.4-1-0.9-0.9l7.5-19.8h0.4 1 1.4z"/><path class="a" d="m192.6 122.7l-5.6 19.3h-0.5l-0.9 0.5h-0.9l-1 0.4h-1.4l-0.9 0.5h-0.9-0.5l2.8-18.4 0.5-0.4h0.4 0.5l1.9-0.5 1.4-0.5 1.9-0.5 1.8-0.4h0.5 0.5z"/><path class="a" d="m177.2 126.9l-1 17.9h-0.4l-0.5 0.5-0.9 0.5-1.4 0.4-1.4 0.5-1 0.5-0.4 0.4h-0.5l-2.4-16.4 0.5-0.5h0.5l0.5-0.5 1.8-0.5 1.4-0.9 1.9-0.5 1.4-0.9h0.9l0.5-0.5z"/><path class="a" d="m161.7 134l4.2 15.5-0.4 0.5h-0.5l-0.9 0.9-1.4 0.5-1 1-0.9 0.4-0.9 0.5v0.5l-7.1-13.7 0.5-0.5h0.5l0.4-0.4 1.4-1 1.4-1.4 1.9-0.9 1.4-1 1-0.5z"/><path class="a" d="m483 341.1h49.6v-208.5h-49.6z"/><path class="a" d="m483 100.4h49.6v-41.4h-49.6z"/><path class="a" d="m675 125.5l8.4 0.5 8.9 1.4 9.4 2.8 9.8 3.8 9.4 5.2 8.4 7 8 8 6.5 9 4.7 9.9 3.3 10.4 2.3 10.4 1.4 9.9 0.5 9.4 0.5 8v7.1 112.8h-49.7v-102.9-4.7-5.2l-0.5-6.1-0.9-7.1-0.9-6.6-1.9-7.1-2.3-6.6-3.3-6.1-4.2-5.6-5.2-4.7-6.1-3.9-7.5-2.4-8.9-0.9-5.1 0.5-5.6 0.9-6.1 2.4-6.6 3.8-5.6 4.7-5.1 6.2-3.8 7-2.3 8-1.4 9-1 9.4-0.4 9.4v9.5 99.1h-49.7v-208.5h45.9v17.9l3.8-3.3 4.2-3.8 5.6-4.2 6.1-4.3 7.5-3.7 8.9-2.9 9.8-2.3z"/><path class="a" d="m866.5 57.1h14v49.6h-7l-6.1 0.4-5.1 1-4.2 2.3-3.8 2.8-2.8 4.8-1.9 6.1-0.9 8.5h29v44.2h-29v164.3h-49.6v-164.3h-17.8v-44.2h17.8l0.4-6.6 1-8 1.8-8.5 2.9-9.1 4.2-8.9 6.1-9 7.9-8.5 9.4-7 10.8-5.2 11.2-3.3z"/><path fill-rule="evenodd" class="a" d="m992.5 125.5l15.9 0.9 15 3.3 14.5 5.7 13.6 7.1 12.1 8.9 10.8 10.8 9.4 12.3 7.9 13.8 5.7 15 3.7 16 0.9 17-0.9 16.6-3.3 15.5-4.7 14.2-6.5 13.2-8.4 11.3-9.4 10.4-10.8 9-11.7 7.5-12.6 6.1-13.1 4.3-14.1 2.8-14 0.5-16.4-1-15.9-3.7-14.6-5.7-13.5-7.5-12.2-9.4-10.8-11.4-9.4-12.3-7.4-13.7-5.7-14.6-3.2-15.5-1.4-16.1 1.4-16.5 3.2-16 6.1-15.1 7.5-13.8 9.4-12.2 11.2-10.8 12.2-9.5 13.6-7.5 14.5-5.7 15.4-3.3zm0 45.7l-8 0.5-8.4 1.9-8 3.3-7.9 4.8-8 6.1-6.6 7-5.6 8.5-4.7 9.9-2.8 11.3-0.9 12.3 0.9 12.8 3.3 11.3 4.7 10.4 6.1 8.9 7.5 7.6 8.9 6.1 9.3 4.2 9.9 2.8 10.3 1 11.7-1 10.3-3.3 9.8-5.1 8-6.6 7-8 5.6-9 4.2-9.9 2.4-10.8 0.9-11-0.9-13.6-3.8-12.7-6.1-11.3-7.5-9.5-8.9-8-10.3-6.1-10.7-3.4z"/><path fill-rule="evenodd" class="a" d="m1329.2 124.1l15.9 1.4 15 3.3 13.6 5.2 12.6 7 11.2 8.5 9.9 9.9 8.9 10.9 7 11.8 5.6 12.3 4.2 13.2 2.4 13.2 0.9 13.2-0.5 9.5-0.9 8.5-1.4 7h-161.1l1.4 5.2 2.8 5.7 3.8 6.6 5.1 6.1 6.6 6.1 7.5 5.2 8.9 4.2 9.8 2.8 11.2 1 12.7-1 11.2-3.3 9.4-5.6 7.9-7.1 6.6-9.4h52.4l-5.1 12.3-6.6 11.7-8.9 11.3-10.3 10.5-11.2 8.5-13.1 7.5-14.1 5.7-14.9 3.7-16 1-16.4-1-15.4-3.7-14.5-5.2-13.6-7.5-12.2-9.5-10.8-10.9-8.8-12.3-7.5-13.6-5.7-14.6-3.2-15.6-1-16.6 1-16 3.2-15.5 5.2-14.6 7-13.7 8.9-12.8 10.8-11.3 11.7-9.9 13.6-8 14.5-6.1 15.9-3.8zm0.4 45.7l-6.5 0.5-7 1.4-7.5 2.3-7.5 3.9-7.5 4.7-7 6.6-6.6 8-5.2 9.9-3.7 11.8h114.7l-3.2-11.8-4.7-9.9-5.7-8.5-7.4-6.6-8-5.2-8.9-3.8-8.9-2.4z"/><path class="a" d="m1457 57.1h49.6v167.4 14.2 23.1 7.1l0.5 8 2.4 6.1 2.8 4.3 4.2 3.3 4.7 1.9 5.6 1.4 6.1 0.5h6.1l6.5 0.4v49.1h-21.1l-11.7-0.9-11.2-3.3-10.8-5.2-9.3-7.5-8-8.5-6.1-9.1-4.2-8.9-2.8-9-1.9-8.5-0.9-7.5-0.5-6.6v-15.5-16.2-12.7z"/><path class="a" d="m1125.5 57.1h49.6v164.6l-0.5 14.1v23.2l0.5 7.1 0.5 8 1.8 6.1 3.3 4.3 4.2 3.3 4.7 1.8 5.6 1.5 6.1 0.4h6.1l6.1 0.5v49.1h-20.6l-11.7-1-11.3-3.2-10.7-5.2-9.4-7.6-7.9-8.4-6.1-9.1-4.3-9-2.8-8.9-1.8-8.5-1-7.5-0.4-6.6-0.5-15.6v-16.1l0.5-12.7z"/><path class="a" d="m1151.7 174h62.7v-42.4h-62.7z"/></g></svg>
