<svg width="176" height="32" viewBox="0 0 176 32" fill="none" xmlns="http://www.w3.org/2000/svg">
<g clip-path="url(#clip0_9572_66056)">
<path d="M4.49193 27.4265V0H0V27.4265V32H4.49193H22.4456V27.4265H4.49193Z" fill="#0D0C0C"/>
<path d="M35.9068 18.2868H44.8837V13.7134H31.4219V18.2868V27.4266V32.0001H35.9068H53.8605V27.4266H35.9068V18.2868Z" fill="#0D0C0C"/>
<path d="M53.8675 0H31.4219V4.57346H53.8675V0Z" fill="#EB0A32"/>
<path d="M169.686 32H175.059L163.865 0H158.491L165.579 20.2569H152.152V20.5059L148.129 32H153.502L155.965 24.9442H167.216L169.686 32Z" fill="#0D0C0C"/>
<path d="M103.246 9.18262H98.7539V32.0001H103.246V9.18262Z" fill="#0D0C0C"/>
<path d="M82.6102 23.4005C80.5531 25.8615 77.4885 27.4263 74.0601 27.4263C67.861 27.4263 62.8373 22.3123 62.8373 15.9962C62.8373 9.68016 67.861 4.56614 74.0601 4.56614C77.6565 4.56614 80.854 6.29452 82.911 8.96889L86.4164 6.10959C83.5408 2.38254 79.0768 -0.00732422 74.0671 -0.00732422C65.3911 -0.00732422 58.3594 7.15516 58.3594 15.9891C58.3594 24.8231 65.3911 31.9856 74.0671 31.9856C78.9509 31.9856 83.3169 29.7166 86.1995 26.1532L82.6172 23.3863L82.6102 23.4005Z" fill="#0D0C0C"/>
<path d="M136.824 19.1405C139.937 17.4192 142.057 14.062 142.057 10.1998C142.057 4.62346 137.586 0.0713384 132.129 0.00732422H132.171H89.7773V4.50254L123.782 4.48832L132.122 4.50254C135.228 4.52388 137.726 7.02755 137.726 10.1998C137.726 13.3721 135.305 15.8402 132.283 15.9611H126.238V9.15425L121.2 9.17558V21.5446V31.9931H126.238V21.5232V20.2856H130.708C130.946 20.3212 131.191 20.3425 131.436 20.3567L137.607 31.9575H143.645L136.824 19.1334V19.1405Z" fill="#0D0C0C"/>
</g>
<defs>
<clipPath id="clip0_9572_66056">
<rect width="176" height="32" fill="white"/>
</clipPath>
</defs>
</svg>