<svg xmlns="http://www.w3.org/2000/svg" xmlns:xlink="http://www.w3.org/1999/xlink" viewBox="0 0 65 24"><path d="M 61.516 12.832 C 61.516 15.465 60.2 17.112 58.001 17.112 C 55.754 17.112 54.461 15.463 54.461 12.832 L 54.461 12.636 C 54.461 9.979 55.803 8.381 58.001 8.381 C 60.198 8.381 61.516 10.004 61.516 12.661 Z M 58.001 6.043 C 54.242 6.043 51.434 8.7 51.434 12.685 L 51.434 12.882 C 51.434 16.793 54.217 19.425 57.977 19.425 C 61.736 19.425 64.545 16.817 64.545 12.809 L 64.545 12.611 C 64.545 8.675 61.737 6.04 58.002 6.04" fill="currentColor"></path><path d="M 42.622 6.043 C 38.863 6.043 36.055 8.7 36.055 12.685 L 36.055 19.424 L 39.082 19.424 L 39.082 12.635 C 39.082 9.978 40.425 8.38 42.622 8.38 C 44.819 8.38 46.137 10.004 46.137 12.66 L 46.137 19.424 L 49.164 19.424 L 49.164 12.613 C 49.164 8.678 46.357 6.043 42.622 6.043" fill="currentColor"></path><path d="M 18.406 6.044 L 15.379 6.044 L 15.379 19.425 L 18.406 19.425 Z" fill="currentColor"></path><path d="M 10.082 12.832 C 10.082 15.465 8.766 17.112 6.566 17.112 L 3.027 17.112 L 3.027 8.379 L 6.566 8.379 C 8.763 8.379 10.082 10.002 10.082 12.658 Z M 6.566 6.043 L 0 6.043 L 0 24 L 3.027 24 L 3.027 19.425 L 6.542 19.425 C 10.301 19.425 13.109 16.817 13.109 12.809 L 13.109 12.611 C 13.109 8.676 10.301 6.041 6.566 6.041" fill="currentColor"></path><path d="M 30.754 15.3 C 30.4 16.456 29.233 17.113 27.748 17.113 L 27.242 17.113 C 24.997 17.113 23.703 15.464 23.703 12.833 L 23.703 12.637 C 23.703 9.979 25.046 8.382 27.243 8.382 C 29.44 8.382 30.758 10.005 30.758 12.661 Z M 27.243 6.043 C 23.483 6.043 20.677 8.7 20.677 12.685 L 20.677 12.882 C 20.677 16.749 23.397 19.362 27.091 19.421 L 27.218 19.421 C 28.926 19.382 29.973 18.77 30.753 17.821 L 30.753 19.425 L 33.784 19.425 L 33.784 12.614 C 33.784 8.678 30.977 6.043 27.242 6.043" fill="currentColor"></path><path d="M 16.896 0 C 15.841 0 15.053 0.745 15.053 1.864 L 15.053 1.919 C 15.053 3.017 15.834 3.756 16.889 3.756 C 17.943 3.756 18.732 3.024 18.732 1.899 L 18.732 1.844 C 18.732 0.74 17.946 0.001 16.896 0.001" fill="currentColor"></path></svg>
