<?xml version="1.0" encoding="UTF-8" standalone="no"?>
<svg
   fill="none"
   viewBox="0 0 188 48"
   aria-label="Seibert logo"
   class="max-h-10 w-40 md:max-h-full md:w-[187px] text-white"
   version="1.1"
   id="svg4"
   sodipodi:docname="seibert.svg"
   inkscape:version="1.2.2 (b0a8486541, 2022-12-01)"
   xmlns:inkscape="http://www.inkscape.org/namespaces/inkscape"
   xmlns:sodipodi="http://sodipodi.sourceforge.net/DTD/sodipodi-0.dtd"
   xmlns="http://www.w3.org/2000/svg"
   xmlns:svg="http://www.w3.org/2000/svg">
  <defs
     id="defs8" />
  <sodipodi:namedview
     id="namedview6"
     pagecolor="#ffffff"
     bordercolor="#000000"
     borderopacity="0.25"
     inkscape:showpageshadow="2"
     inkscape:pageopacity="0.0"
     inkscape:pagecheckerboard="0"
     inkscape:deskcolor="#d1d1d1"
     showgrid="false"
     inkscape:zoom="9.4202128"
     inkscape:cx="94"
     inkscape:cy="24.044043"
     inkscape:window-width="1920"
     inkscape:window-height="1080"
     inkscape:window-x="1920"
     inkscape:window-y="163"
     inkscape:window-maximized="1"
     inkscape:current-layer="svg4" />
  <path
     fill="currentColor"
     d="M12.135 39.451c-3.898 0-6.862-.72-8.892-2.161C1.212 35.816.13 33.62 0 30.706h6.73c.132 1.18.689 2.08 1.671 2.702.983.623 2.342.934 4.078.934 1.376 0 2.44-.213 3.194-.639.753-.426 1.13-1.015 1.13-1.769 0-.753-.41-1.31-1.229-1.67-.819-.393-2.325-.72-4.52-.982-2.325-.263-4.241-.656-5.748-1.18-1.474-.524-2.587-1.244-3.34-2.161-.754-.918-1.13-2.08-1.13-3.489 0-2.39.982-4.258 2.947-5.6 1.965-1.343 4.553-2.015 7.763-2.015 3.439 0 6.14.72 8.106 2.162 1.998 1.408 3.03 3.357 3.095 5.846h-6.534c-.098-.884-.59-1.588-1.474-2.112-.852-.524-1.932-.786-3.243-.786-1.277 0-2.292.213-3.046.639-.72.425-1.08.998-1.08 1.719 0 .72.425 1.261 1.277 1.621.851.36 2.309.672 4.372.934 2.424.262 4.373.639 5.847 1.13 1.507.458 2.637 1.146 3.39 2.063.786.917 1.179 2.13 1.179 3.636 0 2.39-.999 4.29-2.997 5.699-1.998 1.376-4.765 2.063-8.303 2.063Zm27.12 0c-3.865 0-6.928-1.064-9.187-3.193-2.228-2.129-3.341-5.093-3.341-8.893 0-2.489.507-4.683 1.523-6.583 1.048-1.9 2.522-3.357 4.421-4.373 1.9-1.048 4.144-1.572 6.731-1.572 3.93 0 6.928 1.098 8.991 3.292 2.063 2.162 3.095 5.208 3.095 9.138v.54h-19.16v-2.014H46.33l-1.229.786c-.032-1.867-.54-3.324-1.523-4.372-.95-1.081-2.325-1.622-4.127-1.622-1.867 0-3.357.557-4.47 1.67-1.081 1.114-1.622 2.687-1.622 4.717v.442c0 2.031.54 3.587 1.621 4.668 1.081 1.08 2.604 1.621 4.57 1.621 1.408 0 2.57-.262 3.488-.786.95-.557 1.572-1.326 1.867-2.309h6.436a9.135 9.135 0 0 1-1.818 4.52c-.983 1.31-2.358 2.358-4.127 3.144-1.736.786-3.783 1.18-6.141 1.18Zm16.262-23.975h6.632v23.337h-6.632V15.476Zm3.34-3.292c-1.211 0-2.26-.426-3.144-1.277-.851-.852-1.277-1.883-1.277-3.095 0-1.18.426-2.195 1.277-3.046.885-.885 1.933-1.327 3.145-1.327s2.227.426 3.046 1.277c.851.852 1.277 1.884 1.277 3.096 0 1.244-.426 2.292-1.277 3.144-.82.819-1.834 1.228-3.046 1.228Zm8.697-5.65h6.632v17.589l-.737 2.997.737 2.997v8.696h-6.632V6.534Zm6.829 16.803c.065-1.54.458-2.948 1.179-4.225a8.613 8.613 0 0 1 2.948-3.096c1.277-.786 2.751-1.179 4.421-1.179 3.21 0 5.716 1.098 7.517 3.292 1.835 2.194 2.752 5.208 2.752 9.04 0 2.49-.459 4.667-1.376 6.534-.884 1.867-2.129 3.292-3.734 4.274-1.605.983-3.423 1.474-5.453 1.474-2.391 0-4.34-.704-5.847-2.112-1.474-1.441-2.276-3.57-2.407-6.387h-1.867v-7.615h1.867Zm5.994 10.366c1.801 0 3.259-.606 4.372-1.818 1.114-1.212 1.67-2.784 1.67-4.716 0-1.933-.572-3.505-1.719-4.717-1.114-1.212-2.604-1.817-4.47-1.817-1.835 0-3.342.605-4.52 1.817-1.18 1.18-1.77 2.735-1.77 4.668 0 1.932.607 3.52 1.818 4.765 1.245 1.212 2.785 1.818 4.619 1.818Zm28.299 5.748c-3.865 0-6.911-1.064-9.139-3.193-2.227-2.129-3.34-5.093-3.34-8.893 0-2.489.507-4.683 1.522-6.583a10.734 10.734 0 0 1 4.422-4.373c1.933-1.048 4.176-1.572 6.731-1.572 3.93 0 6.911 1.098 8.942 3.292 2.063 2.162 3.095 5.208 3.095 9.138v.54h-19.161v-2.014h14.051l-1.228.786c-.033-1.867-.54-3.324-1.523-4.372-.95-1.081-2.309-1.622-4.078-1.622-1.867 0-3.373.557-4.52 1.67-1.113 1.114-1.67 2.687-1.67 4.717v.442c0 2.031.54 3.587 1.621 4.668 1.081 1.08 2.604 1.621 4.569 1.621 1.409 0 2.571-.262 3.489-.786.949-.557 1.572-1.326 1.866-2.309h6.486a9.144 9.144 0 0 1-1.818 4.52c-.983 1.343-2.358 2.407-4.127 3.193-1.769.754-3.832 1.13-6.19 1.13Zm16.655-23.975h6.632v23.337h-6.632V15.476Zm5.551 8.745h1.179c.099-3.079.95-5.306 2.555-6.682 1.605-1.375 3.849-2.063 6.731-2.063h16.409v6.141H138.89c-2.391 0-4.143.491-5.256 1.474-1.114.95-1.671 2.457-1.671 4.52l-1.081-3.39Zm22.895 15.23c-2.915 0-5.192-.819-6.829-2.456-1.638-1.67-2.457-4.045-2.457-7.124V8.352h6.633v20.733c0 1.408.295 2.49.884 3.242.59.754 1.523 1.13 2.801 1.13a5.518 5.518 0 0 0 3.046-.884l2.751 4.176c-.884.786-1.9 1.441-3.046 1.965-1.147.492-2.408.737-3.783.737ZM173.865 0h2.407l-12.626 48h-2.408l12.627-48ZM184.948 0h2.407l-12.626 48h-2.408l12.627-48Z"
     id="path2" />
</svg>
